<mxfile host="app.diagrams.net" agent="Mozilla/5.0 (Windows NT 10.0; Win64; x64) AppleWebKit/537.36 (KHTML, like Gecko) Chrome/131.0.0.0 Safari/537.36" version="26.0.2">
  <diagram name="Page-1" id="DuYrjHF55ZbmvbXl5EJW">
    <mxGraphModel dx="794" dy="458" grid="1" gridSize="10" guides="1" tooltips="1" connect="1" arrows="1" fold="1" page="1" pageScale="1" pageWidth="850" pageHeight="1100" math="0" shadow="0">
      <root>
        <mxCell id="0" />
        <mxCell id="1" parent="0" />
        <mxCell id="d8vHmD5cA30dSiSlELu3-4" value="" style="edgeStyle=orthogonalEdgeStyle;rounded=0;orthogonalLoop=1;jettySize=auto;html=1;" edge="1" parent="1" source="d8vHmD5cA30dSiSlELu3-1" target="d8vHmD5cA30dSiSlELu3-3">
          <mxGeometry relative="1" as="geometry" />
        </mxCell>
        <mxCell id="d8vHmD5cA30dSiSlELu3-1" value="Begin" style="ellipse;whiteSpace=wrap;html=1;fillColor=#f8cecc;strokeColor=#b85450;" vertex="1" parent="1">
          <mxGeometry x="350" y="20" width="130" height="60" as="geometry" />
        </mxCell>
        <mxCell id="d8vHmD5cA30dSiSlELu3-2" value="End" style="ellipse;whiteSpace=wrap;html=1;fillColor=#f8cecc;strokeColor=#b85450;" vertex="1" parent="1">
          <mxGeometry x="350" y="380" width="130" height="60" as="geometry" />
        </mxCell>
        <mxCell id="d8vHmD5cA30dSiSlELu3-7" value="" style="edgeStyle=orthogonalEdgeStyle;rounded=0;orthogonalLoop=1;jettySize=auto;html=1;" edge="1" parent="1" source="d8vHmD5cA30dSiSlELu3-3" target="d8vHmD5cA30dSiSlELu3-5">
          <mxGeometry relative="1" as="geometry" />
        </mxCell>
        <mxCell id="d8vHmD5cA30dSiSlELu3-3" value="Input A, B, C" style="shape=parallelogram;perimeter=parallelogramPerimeter;whiteSpace=wrap;html=1;fixedSize=1;fillColor=#dae8fc;strokeColor=#6c8ebf;" vertex="1" parent="1">
          <mxGeometry x="315" y="110" width="200" height="60" as="geometry" />
        </mxCell>
        <mxCell id="d8vHmD5cA30dSiSlELu3-8" value="" style="edgeStyle=orthogonalEdgeStyle;rounded=0;orthogonalLoop=1;jettySize=auto;html=1;" edge="1" parent="1" source="d8vHmD5cA30dSiSlELu3-5" target="d8vHmD5cA30dSiSlELu3-6">
          <mxGeometry relative="1" as="geometry" />
        </mxCell>
        <mxCell id="d8vHmD5cA30dSiSlELu3-5" value="Average = (A+B+C) / 3" style="rounded=0;whiteSpace=wrap;html=1;fillColor=#fff2cc;strokeColor=#d6b656;" vertex="1" parent="1">
          <mxGeometry x="327.5" y="200" width="175" height="60" as="geometry" />
        </mxCell>
        <mxCell id="d8vHmD5cA30dSiSlELu3-9" value="" style="edgeStyle=orthogonalEdgeStyle;rounded=0;orthogonalLoop=1;jettySize=auto;html=1;" edge="1" parent="1" source="d8vHmD5cA30dSiSlELu3-6" target="d8vHmD5cA30dSiSlELu3-2">
          <mxGeometry relative="1" as="geometry" />
        </mxCell>
        <mxCell id="d8vHmD5cA30dSiSlELu3-6" value="Output Average" style="shape=parallelogram;perimeter=parallelogramPerimeter;whiteSpace=wrap;html=1;fixedSize=1;fillColor=#dae8fc;strokeColor=#6c8ebf;" vertex="1" parent="1">
          <mxGeometry x="315" y="290" width="200" height="60" as="geometry" />
        </mxCell>
        <mxCell id="d8vHmD5cA30dSiSlELu3-10" value="&lt;h1 style=&quot;margin-top: 0px;&quot;&gt;Pseudo-code&lt;/h1&gt;&lt;p&gt;BEGIN&lt;/p&gt;&lt;p&gt;&lt;span style=&quot;white-space: pre;&quot;&gt;&#x9;&lt;/span&gt;Input A, B, C&lt;br&gt;&lt;/p&gt;&lt;p&gt;&lt;span style=&quot;white-space: pre;&quot;&gt;&#x9;&lt;/span&gt;Average = (A+B+C)/3&lt;br&gt;&lt;/p&gt;&lt;p&gt;&lt;span style=&quot;white-space: pre;&quot;&gt;&#x9;&lt;/span&gt;Output&amp;nbsp;&lt;span style=&quot;background-color: transparent; color: light-dark(rgb(0, 0, 0), rgb(255, 255, 255));&quot;&gt;Average&lt;/span&gt;&lt;br&gt;&lt;/p&gt;&lt;p&gt;END&lt;/p&gt;" style="text;html=1;whiteSpace=wrap;overflow=hidden;rounded=0;fillColor=default;" vertex="1" parent="1">
          <mxGeometry x="20" y="40" width="180" height="210" as="geometry" />
        </mxCell>
      </root>
    </mxGraphModel>
  </diagram>
</mxfile>
